<?xml version="1.0" encoding="utf-8"?>
<!-- Generator: Adobe Illustrator 21.0.0, SVG Export Plug-In . SVG Version: 6.00 Build 0)  -->
<svg version="1.1" id="Layer_1" xmlns="http://www.w3.org/2000/svg" xmlns:xlink="http://www.w3.org/1999/xlink" x="0px" y="0px"
	 viewBox="0 0 1005 259" style="enable-background:new 0 0 1005 259;" xml:space="preserve">
<style type="text/css">
	.st0{fill:#FF7E44;}
	.st1{display:none;fill:#FFFFFF;}
	.st2{fill:#2ECC71;}
	.st3{fill:#FFFFFF;}
</style>
<g>
	<g>
		<polygon class="st0" points="124.3,-0.3 124.3,-0.4 124.1,-0.3 		"/>
	</g>
	<rect x="108.7" y="28" class="st1" width="130.7" height="203.4"/>
	<polygon class="st2" points="239.4,-0.4 -0.4,129.6 239.4,259.6 239.4,188.7 130.4,129.6 239.4,70.4 	"/>
</g>
<g>
	<path class="st3" d="M357.2,81.1c-11,0-19.6,4.2-25.7,12.5s-9.1,19.9-9.1,34.7c0,30.9,11.6,46.3,34.8,46.3c9.7,0,21.5-2.4,35.3-7.3
		v24.6c-11.4,4.7-24.1,7.1-38.1,7.1c-20.1,0-35.5-6.1-46.2-18.3s-16-29.8-16-52.6c0-14.4,2.6-27,7.9-37.8
		c5.2-10.8,12.8-19.1,22.6-24.9c9.8-5.8,21.3-8.7,34.5-8.7c13.4,0,27,3.3,40.5,9.8l-9.5,23.9c-5.2-2.5-10.4-4.6-15.6-6.4
		C367.4,82,362.3,81.1,357.2,81.1z"/>
	<path class="st3" d="M405.4,197.1V58.6h29.4v138.5H405.4z"/>
	<path class="st3" d="M507.9,197.1h-29.4v-114H441V58.6h104.5V83h-37.6V197.1z"/>
	<path class="st3" d="M631.6,197.1h-79.7V58.6h79.7v24.1h-50.4v30.4h46.9v24.1h-46.9v35.7h50.4V197.1z"/>
	<path class="st3" d="M674.9,143.9V197h-29.4V58.6h40.3c18.8,0,32.7,3.4,41.8,10.3c9,6.9,13.5,17.3,13.5,31.2
		c0,8.1-2.2,15.4-6.7,21.7c-4.5,6.3-10.8,11.3-19,14.9c20.8,31.1,34.4,51.2,40.7,60.3h-32.6l-33-53.1H674.9z M674.9,120.1h9.5
		c9.3,0,16.1-1.5,20.6-4.6c4.4-3.1,6.6-8,6.6-14.6s-2.3-11.2-6.8-14s-11.5-4.2-21-4.2h-8.9L674.9,120.1L674.9,120.1z"/>
	<path class="st3" d="M790.1,143.9V197h-29.4V58.6H801c18.8,0,32.7,3.4,41.8,10.3c9,6.9,13.5,17.3,13.5,31.2
		c0,8.1-2.2,15.4-6.7,21.7c-4.5,6.3-10.8,11.3-19,14.9c20.8,31.1,34.4,51.2,40.7,60.3h-32.6l-33-53.1H790.1z M790.1,120.1h9.5
		c9.3,0,16.1-1.5,20.6-4.6c4.4-3.1,6.6-8,6.6-14.6s-2.3-11.2-6.8-14s-11.5-4.2-21-4.2h-8.9L790.1,120.1L790.1,120.1z"/>
	<path class="st3" d="M970.2,197.1l-10-33h-50.5l-10,33H868l48.9-139h35.9l49.1,139H970.2z M953.1,139.5
		c-9.3-29.9-14.5-46.7-15.7-50.7c-1.2-3.9-2-7-2.5-9.3c-2.1,8.1-8,28.1-17.9,59.9h36.1L953.1,139.5L953.1,139.5z"/>
</g>
</svg>
